# xmcd
#
# Track frame offsets: 
#        150
#        13005
#        23165
#        40187
#        67931
#        82739
#        96521
#        113017
#        132941
#        150024
#        170782
#        183670
#        199744
#        220412
#        238670
#        250494
#        268435
#        280132
#        293150
#        308297
#
# Disc length: 4386 seconds
#
# Revision: 1
# Processed by: cddbd v1.5.2PL0 Copyright (c) Steve Scherf et al.
# Submitted via: ExactAudioCopy v0.99pb5
#
DISCID=18112014
DTITLE=Skladanka - Najlepsza muzyka po polsku 3 CD4
DYEAR=1900
DGENRE=Pop
TTITLE0=Wilki - Sen o Warszawie
TTITLE1=Skaldowie - Wszytko Mi Mowi, Ze Mnie Ktos Pokochal
TTITLE2=KOMBII - Mysle O Tobie
TTITLE3=Dzem - Wehikul Czasu
TTITLE4=Ewa Farna - Dmuchawce, latawce, Wiatr (Radio Edit)
TTITLE5=Kasia Kowalska - Chce zatrzymac ten czas
TTITLE6=Magda Steczkowska - Pewnie Dlatego
TTITLE7=Robert Janson - Male Szczescia
TTITLE8=Ziyo - Magiczne Slowa
TTITLE9=Mafia - W Swietle Dnia
TTITLE10=Elektryczne Gitary - Wlosy
TTITLE11=IRA - Londyn 8.15
TTITLE12=Martyna Jakubowicz - W Domach Z Betonu
TTITLE13=Varius Manx                    - Ten sen                     
TTITLE13=
TTITLE14=Soyka - Kazdy Kochac Sie Chce
TTITLE15=Edyta Bartosiewicz - Zegar
TTITLE16=Szwagierkolaska - U Cioci Na Imieninach
TTITLE17=De Su - Zycie Cudem Jest
TTITLE18=Goya - W Zasiegu Twego Wzroku
TTITLE19=Maanam - Krakowski spleen
EXTD=
EXTT0=
EXTT1=
EXTT2=
EXTT3=
EXTT4=
EXTT5=
EXTT6=
EXTT7=
EXTT8=
EXTT9=
EXTT10=
EXTT11=
EXTT12=
EXTT13=
EXTT14=
EXTT15=
EXTT16=
EXTT17=
EXTT18=
EXTT19=
PLAYORDER=
